<?xml version="1.0" standalone="no"?>
<!DOCTYPE svg PUBLIC "-//W3C//DTD SVG 20010904//EN"
 "http://www.w3.org/TR/2001/REC-SVG-20010904/DTD/svg10.dtd">
<svg version="1.0" xmlns="http://www.w3.org/2000/svg"
 width="700.000000pt" height="700.000000pt" viewBox="0 0 700.000000 700.000000"
 preserveAspectRatio="xMidYMid meet">
<metadata>
Created by potrace 1.11, written by Peter Selinger 2001-2013
</metadata>
<g transform="translate(0.000000,700.000000) scale(0.100000,-0.100000)"
fill="#000000" stroke="none">
<path d="M371 6989 c-176 -34 -331 -199 -361 -385 -13 -81 -13 -6127 0 -6208
31 -191 184 -351 369 -386 75 -14 6167 -14 6242 0 185 35 338 195 369 386 13
81 13 6127 0 6208 -31 191 -184 351 -369 386 -67 13 -6185 12 -6250 -1z m3444
-584 c894 -138 1663 -708 2078 -1540 176 -353 282 -744 303 -1125 6 -104 5
-121 -14 -163 -24 -55 -62 -93 -117 -118 -38 -18 -98 -19 -1339 -19 -1296 0
-1300 0 -1343 21 -47 23 -88 66 -112 119 -14 32 -16 166 -16 1350 0 1436 -3
1357 58 1427 58 66 92 75 257 69 80 -3 190 -12 245 -21z m-1128 -1682 c20 -9
44 -30 54 -47 18 -30 19 -67 19 -888 l0 -858 846 0 c938 0 896 3 928 -65 36
-75 12 -428 -44 -645 -164 -638 -617 -1157 -1210 -1383 -116 -44 -297 -92
-416 -109 -114 -16 -383 -16 -497 0 -1160 166 -1920 1329 -1631 2497 177 716
722 1277 1414 1454 99 26 170 38 305 54 89 11 199 6 232 -10z"/>
<path d="M3692 4928 l3 -1033 1023 -3 c620 -1 1022 2 1022 7 0 5 -11 65 -25
133 -182 916 -844 1633 -1725 1871 -86 23 -256 57 -288 57 -10 0 -12 -210 -10
-1032z"/>
</g>
</svg>
